<svg width="228" height="29" viewBox="0 0 228 29" fill="none" xmlns="http://www.w3.org/2000/svg">
<path d="M52.0613 13.2085V25.414C52.0602 25.5948 51.9865 25.7679 51.8561 25.8957C51.7257 26.0236 51.5491 26.0958 51.3647 26.0969H46.7991C46.601 26.0979 46.4047 26.0605 46.2216 25.9866C46.0384 25.9128 45.872 25.8041 45.7319 25.6668C45.5919 25.5295 45.481 25.3663 45.4057 25.1868C45.3305 25.0072 45.2922 24.8147 45.2933 24.6205L45.092 24.7113C43.3973 25.4988 41.5441 25.9035 39.6688 25.8956C37.3042 25.9183 34.9831 25.272 32.9836 24.0341C30.9842 22.7963 29.3912 21.0194 28.3955 18.9165C28.3337 18.7842 28.3172 18.6358 28.3484 18.4936C28.3796 18.3513 28.4569 18.2227 28.5687 18.127L33.1142 14.1361C33.1218 14.1239 33.1331 14.1143 33.1464 14.1085C33.1735 14.0899 33.2059 14.0803 33.239 14.0809C33.2791 14.0807 33.318 14.0939 33.3495 14.1183C33.3809 14.1427 33.403 14.1768 33.4121 14.2151C33.4141 14.2268 33.4141 14.2389 33.4121 14.2506C33.4696 15.4429 33.9022 16.5884 34.6505 17.5299C35.3988 18.4714 36.4261 19.1626 37.5913 19.5086C38.4501 19.7694 39.3578 19.8368 40.2469 19.7056C41.1359 19.5743 41.9832 19.248 42.7256 18.7508C43.4681 18.2537 44.0864 17.5986 44.5344 16.8344C44.9825 16.0702 45.2488 15.2166 45.3134 14.3374C45.3134 14.2032 45.3134 14.069 45.3134 13.9427C45.3134 13.8164 45.3134 13.6782 45.3134 13.548C45.2066 12.0745 44.5348 10.6953 43.4331 9.68761C42.3314 8.67995 40.8815 8.11854 39.3749 8.11627C37.4705 8.11627 36.2465 9.02814 34.5435 10.5361C34.5435 10.5361 20.7217 22.7416 20.3755 23.0297C20.1943 23.1837 20.005 23.3297 19.8198 23.4639H19.7997C17.631 25.0548 14.9914 25.9073 12.2829 25.8916C10.067 25.878 7.89551 25.2806 5.99588 24.1619C4.09625 23.0432 2.53832 21.4443 1.48516 19.5327C0.432 17.6211 -0.0776586 15.4671 0.00958453 13.2961C0.0968276 11.1251 0.777759 9.01707 1.98106 7.19263C3.18435 5.3682 4.86578 3.89449 6.8493 2.92579C8.83281 1.95708 11.0455 1.529 13.2556 1.68638C15.4658 1.84376 17.5921 2.58081 19.4121 3.82035C21.232 5.05988 22.6786 6.75632 23.6004 8.73207C23.6595 8.86582 23.6734 9.01459 23.6401 9.15665C23.6068 9.2987 23.528 9.42657 23.4152 9.52156L18.7167 13.5835C18.7037 13.601 18.6873 13.6158 18.6684 13.6269C18.6404 13.6472 18.6065 13.6582 18.5717 13.6585C18.5255 13.6585 18.481 13.6407 18.4479 13.609C18.4148 13.5773 18.3956 13.5341 18.3946 13.4887C18.3946 13.4374 18.3946 13.3822 18.3946 13.3309C18.3924 12.422 18.1727 11.5264 17.7532 10.716C17.3336 9.90562 16.7259 9.2031 15.9789 8.66497C14.9684 7.93328 13.7444 7.54017 12.4882 7.54389C11.7004 7.52371 10.9165 7.65843 10.1826 7.94008C9.44876 8.22173 8.77986 8.64462 8.21537 9.1838C7.65089 9.72298 7.20224 10.3675 6.89591 11.0794C6.58958 11.7913 6.43176 12.5562 6.43176 13.3289C6.43176 14.1016 6.58958 14.8664 6.89591 15.5783C7.20224 16.2902 7.65089 16.9348 8.21537 17.474C8.77986 18.0131 9.44876 18.436 10.1826 18.7177C10.9165 18.9993 11.7004 19.134 12.4882 19.1138C12.609 19.1138 12.7338 19.1138 12.8546 19.1138C14.0914 19.0434 15.2732 18.5885 16.2285 17.8151L30.8837 5.18333C31.0407 5.03332 31.2098 4.87542 31.4031 4.70963C33.6904 2.74732 36.6294 1.67077 39.6688 1.68195C42.7799 1.64963 45.7875 2.77716 48.0829 4.83646C50.3784 6.89575 51.7903 9.73303 52.0331 12.7743C52.0451 12.9045 52.0572 13.0545 52.0613 13.2085Z" fill="white"/>
<path d="M66.3299 26.4641C64.7109 25.6423 63.3613 24.3889 62.4367 22.8483C61.5181 21.2508 61.0354 19.4479 61.0354 17.614C61.0354 15.7801 61.5181 13.9772 62.4367 12.3796C63.3626 10.8519 64.7036 9.60685 66.3098 8.78353C68.0497 7.89887 69.9868 7.45257 71.9464 7.48483C73.7646 7.44509 75.5639 7.85221 77.1804 8.66906C78.5375 9.36158 79.6575 10.4294 80.4013 11.7402C80.451 11.8305 80.4628 11.9363 80.4342 12.0351C80.4057 12.1338 80.339 12.2178 80.2483 12.2691L78.7104 13.1494C78.2695 13.3985 77.7597 13.5048 77.2536 13.453C76.7475 13.4013 76.271 13.1942 75.892 12.8612C75.5615 12.5616 75.1935 12.3043 74.7969 12.0954C73.6309 11.5095 72.3087 11.2913 71.0114 11.4708C69.714 11.6503 68.5049 12.2187 67.5499 13.0981C66.3903 14.2218 65.8106 15.7231 65.8106 17.6021C65.8106 19.4772 66.3863 20.9811 67.5297 22.1022C68.4857 22.9801 69.6946 23.5474 70.9916 23.7269C72.2885 23.9063 73.6104 23.6891 74.7768 23.1049C75.5639 22.6847 76.2374 22.0865 76.7416 21.3601C76.7978 21.2752 76.8852 21.2148 76.9856 21.1913C77.086 21.1678 77.1918 21.183 77.2811 21.2338L80.2403 22.9272C80.3331 22.9786 80.4013 23.064 80.4299 23.1646C80.4586 23.2653 80.4454 23.373 80.3933 23.4641C79.6362 24.7689 78.5201 25.8386 77.1724 26.551C75.5703 27.3717 73.7816 27.7792 71.9746 27.7352C70.0147 27.7765 68.0751 27.3397 66.3299 26.4641Z" fill="white"/>
<path d="M86.7103 26.4641C85.1098 25.6368 83.7798 24.3835 82.8733 22.8482C81.9677 21.2465 81.4926 19.4452 81.4926 17.6139C81.4926 15.7826 81.9677 13.9813 82.8733 12.3796C83.7854 10.8547 85.1145 9.61038 86.7103 8.78742C88.4265 7.93369 90.3238 7.48877 92.2482 7.48877C94.1727 7.48877 96.07 7.93369 97.7862 8.78742C99.376 9.61276 100.699 10.8568 101.607 12.3796C102.513 13.9813 102.988 15.7826 102.988 17.6139C102.988 19.4452 102.513 21.2465 101.607 22.8482C100.701 24.3835 99.3706 25.6368 97.7701 26.4641C96.0531 27.3154 94.1561 27.7589 92.2321 27.7589C90.3081 27.7589 88.4111 27.3154 86.6942 26.4641H86.7103ZM96.5341 22.0903C97.6695 20.9534 98.2371 19.4587 98.2371 17.606C98.2371 15.7534 97.6695 14.2612 96.5341 13.1296C95.38 12.0309 93.8347 11.4164 92.2261 11.4164C90.6175 11.4164 89.0722 12.0309 87.9181 13.1296C86.7988 14.2665 86.2379 15.7612 86.2352 17.6139C86.2325 19.4666 86.7935 20.9587 87.9181 22.0903C89.0714 23.1843 90.6133 23.7959 92.218 23.7959C93.8228 23.7959 95.3646 23.1843 96.518 22.0903H96.5341Z" fill="white"/>
<path d="M126.501 0.395238V27.1076C126.501 27.2123 126.458 27.3127 126.383 27.3867C126.307 27.4608 126.205 27.5023 126.098 27.5023H123.554C123.13 27.5024 122.723 27.3387 122.422 27.0469C122.12 26.755 121.948 26.3584 121.943 25.9431C121.942 25.8676 121.919 25.7939 121.877 25.7307C121.835 25.6676 121.775 25.6177 121.704 25.587C121.634 25.5562 121.556 25.5459 121.48 25.5573C121.404 25.5686 121.333 25.6011 121.275 25.651C120.627 26.2479 119.874 26.7241 119.052 27.0563C117.847 27.5363 116.556 27.7752 115.256 27.7589C113.43 27.787 111.627 27.3533 110.022 26.4997C108.485 25.6704 107.22 24.4301 106.374 22.9233C105.504 21.2836 105.049 19.4624 105.049 17.614C105.049 15.7656 105.504 13.9444 106.374 12.3047C107.223 10.8066 108.488 9.57487 110.022 8.75197C111.627 7.89697 113.429 7.46194 115.256 7.48881C116.51 7.47539 117.754 7.702 118.919 8.15593C119.717 8.47318 120.451 8.92473 121.09 9.49016C121.148 9.54023 121.219 9.5728 121.296 9.58401C121.372 9.59521 121.451 9.58457 121.521 9.55334C121.592 9.5221 121.651 9.47159 121.693 9.40788C121.735 9.34418 121.758 9.26997 121.758 9.19411V2.36896C121.758 1.7408 122.012 1.13839 122.465 0.694212C122.918 0.250038 123.533 0.000493708 124.174 0.000493708H126.078C126.133 -0.00218344 126.187 0.00604777 126.238 0.0246834C126.289 0.043319 126.336 0.0719638 126.376 0.108889C126.415 0.145815 126.447 0.190249 126.468 0.239475C126.49 0.288701 126.501 0.341696 126.501 0.395238ZM118.919 23.0338C119.831 22.5244 120.578 21.7732 121.073 20.8667C121.595 19.8551 121.867 18.7376 121.867 17.6041C121.867 16.4707 121.595 15.3531 121.073 14.3416C120.576 13.4359 119.83 12.6851 118.919 12.1744C117.979 11.6762 116.927 11.4153 115.858 11.4153C114.789 11.4153 113.736 11.6762 112.796 12.1744C111.884 12.6839 111.138 13.435 110.642 14.3416C110.118 15.3524 109.845 16.4702 109.845 17.6041C109.845 18.738 110.118 19.8559 110.642 20.8667C111.137 21.774 111.883 22.5254 112.796 23.0338C113.736 23.5338 114.788 23.7956 115.858 23.7956C116.927 23.7956 117.979 23.5338 118.919 23.0338Z" fill="white"/>
<path d="M148.202 13.3349L136.232 22.1535C136.182 22.1903 136.141 22.238 136.113 22.2928C136.085 22.3476 136.071 22.408 136.071 22.4693C136.071 22.5306 136.085 22.5911 136.113 22.6459C136.141 22.7007 136.182 22.7484 136.232 22.7851C137.215 23.5507 138.439 23.9593 139.694 23.9417C141.254 23.8956 142.754 23.3493 143.966 22.3864C145.526 21.3102 146.6 19.683 146.962 17.8469C146.97 17.7938 146.99 17.7431 147.019 17.6977C147.048 17.6523 147.087 17.6133 147.132 17.583C147.177 17.5527 147.228 17.5318 147.282 17.5215C147.336 17.5112 147.391 17.5118 147.445 17.5232L150.456 18.1548C150.549 18.1732 150.631 18.2228 150.69 18.295C150.749 18.3671 150.78 18.4572 150.778 18.5495C150.651 19.8296 150.225 21.0639 149.534 22.1575C148.547 23.648 147.267 24.9312 145.769 25.9328C144.271 26.9343 142.585 27.6342 140.81 27.9918C139.009 28.3044 137.154 28.1029 135.467 27.4115C133.742 26.6881 132.249 25.5205 131.147 24.0325C130.009 22.5934 129.278 20.8863 129.025 19.0824C128.796 17.3573 129.061 15.6039 129.79 14.0178C130.564 12.3456 131.767 10.8986 133.281 9.81776C134.734 8.70714 136.458 7.98739 138.281 7.72957C140.02 7.49361 141.79 7.74829 143.386 8.46379C145.111 9.25086 146.6 10.4593 147.71 11.9731C147.867 12.1744 148.057 12.4507 148.29 12.802C148.347 12.8853 148.37 12.9867 148.353 13.0857C148.337 13.1846 148.283 13.2738 148.202 13.3349ZM133.305 16.0982C133.045 17.2679 133.186 18.4892 133.707 19.5719C133.731 19.627 133.768 19.6761 133.814 19.7154C133.86 19.7548 133.914 19.7833 133.973 19.7989C134.032 19.8145 134.094 19.8167 134.154 19.8054C134.214 19.7942 134.271 19.7696 134.319 19.7337L142.702 13.5521C142.75 13.5152 142.79 13.4679 142.817 13.4138C142.844 13.3598 142.858 13.3004 142.858 13.2402C142.858 13.18 142.844 13.1206 142.817 13.0666C142.79 13.0125 142.75 12.9652 142.702 12.9283C141.8 12.1395 140.658 11.6637 139.453 11.5744C138.054 11.5285 136.682 11.9518 135.562 12.7743C134.441 13.5968 133.641 14.7693 133.293 16.0982H133.305Z" fill="white"/>
<path d="M168.171 9.57705C169.747 10.9692 170.535 13.0745 170.535 15.893V27.0998C170.535 27.2044 170.492 27.3048 170.417 27.3789C170.341 27.4529 170.239 27.4945 170.132 27.4945H166.476C166.37 27.4945 166.267 27.4529 166.192 27.3789C166.116 27.3048 166.074 27.2044 166.074 27.0998V26.18C166.073 26.1014 166.049 26.0248 166.004 25.9598C165.959 25.8948 165.895 25.8444 165.821 25.8152C165.747 25.7859 165.665 25.7791 165.587 25.7956C165.508 25.812 165.437 25.8511 165.381 25.9076C164.865 26.3997 164.26 26.7932 163.598 27.0682C162.366 27.5519 161.047 27.7843 159.72 27.7511C158.357 27.7799 157.003 27.5215 155.751 26.9932C154.69 26.5453 153.781 25.8134 153.126 24.8813C152.507 23.9776 152.184 22.9104 152.2 21.822C152.17 21.0041 152.337 20.1908 152.687 19.4476C153.036 18.7044 153.559 18.0521 154.213 17.543C155.555 16.464 157.678 15.9259 160.582 15.9285H165.816V15.6324C165.816 14.2508 165.413 13.185 164.548 12.4468C163.682 11.7087 162.45 11.3337 160.787 11.3337C159.652 11.3344 158.523 11.5089 157.442 11.8508C157.137 11.9463 156.837 12.057 156.544 12.1824C155.981 12.4105 155.352 12.4245 154.779 12.2215C154.206 12.0185 153.732 11.6132 153.448 11.085L152.977 10.2284C152.93 10.1441 152.915 10.0459 152.937 9.95216C152.958 9.85841 153.014 9.77555 153.093 9.71915C154.172 8.99279 155.367 8.44844 156.628 8.10861C158.166 7.68201 159.757 7.46938 161.355 7.477C164.321 7.48227 166.593 8.18228 168.171 9.57705ZM163.859 23.5865C164.74 23.0901 165.418 22.3106 165.78 21.3799C165.797 21.3317 165.807 21.2811 165.808 21.2299V19.4062C165.808 19.3015 165.766 19.2011 165.69 19.127C165.615 19.053 165.512 19.0114 165.405 19.0114H160.932C158.211 19.0114 156.848 19.8891 156.846 21.6444C156.835 22.0348 156.922 22.4218 157.101 22.771C157.279 23.1202 157.543 23.4207 157.868 23.6457C158.703 24.1809 159.691 24.4409 160.687 24.3879C161.799 24.4114 162.896 24.1356 163.859 23.5905V23.5865Z" fill="white"/>
<path d="M176.409 27.1313C175.196 26.8323 174.035 26.3601 172.962 25.7299C172.88 25.6765 172.82 25.5949 172.795 25.501C172.77 25.407 172.781 25.3072 172.826 25.2207L174.279 22.4022C174.304 22.3531 174.34 22.3097 174.384 22.2749C174.427 22.2401 174.478 22.2146 174.532 22.2001C174.586 22.1856 174.643 22.1824 174.699 22.1907C174.754 22.199 174.807 22.2186 174.855 22.2483C175.764 22.7639 176.737 23.162 177.75 23.4325C178.972 23.782 180.237 23.9627 181.51 23.9694C184.331 23.9694 185.743 23.2404 185.746 21.7825C185.756 21.4578 185.655 21.139 185.46 20.8766C185.264 20.6142 184.985 20.4232 184.667 20.3338C183.541 19.9655 182.383 19.7012 181.208 19.5443C179.834 19.3616 178.476 19.0766 177.146 18.6917C176.102 18.3756 175.163 17.794 174.424 17.0061C173.655 16.2166 173.268 15.0837 173.268 13.6508C173.251 12.7618 173.464 11.883 173.886 11.0961C174.308 10.3093 174.927 9.64005 175.684 9.15068C177.295 8.02434 179.457 7.46118 182.17 7.46118C183.57 7.46225 184.965 7.61851 186.329 7.92698C187.395 8.14492 188.426 8.49927 189.397 8.98094C189.487 9.03091 189.554 9.11289 189.584 9.2099C189.614 9.3069 189.605 9.41149 189.558 9.502L188.962 10.6586C188.702 11.1684 188.262 11.5689 187.724 11.7865C187.187 12.004 186.587 12.024 186.035 11.8428C184.779 11.42 183.458 11.2091 182.13 11.2191C180.745 11.2191 179.714 11.4205 178.974 11.831C178.659 11.9741 178.391 12.2008 178.201 12.4855C178.011 12.7702 177.906 13.1014 177.899 13.4415C177.889 13.7918 177.996 14.1357 178.204 14.4208C178.411 14.7059 178.709 14.9165 179.05 15.0205C180.208 15.4272 181.404 15.7195 182.621 15.8929C183.965 16.0782 185.292 16.3632 186.591 16.7456C187.608 17.0547 188.526 17.6163 189.256 18.3758C190 19.1417 190.372 20.2285 190.372 21.6364C190.386 22.5223 190.168 23.397 189.738 24.1762C189.308 24.9554 188.68 25.6128 187.916 26.0852C186.276 27.1984 184.045 27.7537 181.224 27.751C179.598 27.7573 177.978 27.5488 176.409 27.1313Z" fill="white"/>
<path d="M206.464 26.1562C206.496 26.2363 206.5 26.3244 206.476 26.4071C206.452 26.4897 206.401 26.5624 206.331 26.6141C205.79 26.9857 205.188 27.2634 204.552 27.4352C203.734 27.6595 202.888 27.7711 202.039 27.7668C199.82 27.7668 198.106 27.1984 196.898 26.0615C195.69 24.9246 195.085 23.2693 195.082 21.0956V11.9454C195.082 11.8408 195.04 11.7404 194.964 11.6663C194.889 11.5923 194.786 11.5507 194.68 11.5507H194.172C193.532 11.5507 192.917 11.3012 192.464 10.857C192.011 10.4128 191.757 9.81039 191.757 9.18224V8.23879C191.757 8.1341 191.799 8.0337 191.874 7.95967C191.95 7.88564 192.052 7.84405 192.159 7.84405H194.68C194.786 7.84405 194.889 7.80245 194.964 7.72842C195.04 7.65439 195.082 7.554 195.082 7.4493V3.71896C195.082 3.61427 195.125 3.51387 195.2 3.43984C195.276 3.36581 195.378 3.32422 195.485 3.32422H199.406C199.513 3.32422 199.615 3.36581 199.691 3.43984C199.766 3.51387 199.809 3.61427 199.809 3.71896V7.4493C199.809 7.554 199.851 7.65439 199.927 7.72842C200.002 7.80245 200.105 7.84405 200.212 7.84405H204.809C204.916 7.84405 205.019 7.88564 205.094 7.95967C205.17 8.0337 205.212 8.1341 205.212 8.23879V11.156C205.212 11.2607 205.17 11.361 205.094 11.4351C205.019 11.5091 204.916 11.5507 204.809 11.5507H200.212C200.105 11.5507 200.002 11.5923 199.927 11.6663C199.851 11.7404 199.809 11.8408 199.809 11.9454V20.9653C199.751 21.7637 200.008 22.5533 200.526 23.172C200.797 23.4354 201.123 23.6392 201.481 23.7698C201.839 23.9005 202.222 23.955 202.603 23.9299C203.392 23.9521 204.172 23.7609 204.858 23.3773C204.908 23.3488 204.963 23.3312 205.021 23.3256C205.078 23.3201 205.136 23.3267 205.191 23.345C205.245 23.3634 205.295 23.393 205.337 23.432C205.379 23.4709 205.412 23.5182 205.433 23.5707L206.464 26.1562Z" fill="white"/>
<path d="M228 8.10444V27.1074C228 27.2121 227.958 27.3125 227.882 27.3866C227.807 27.4606 227.704 27.5022 227.597 27.5022H225.069C224.653 27.5011 224.254 27.3386 223.96 27.0501C223.666 26.7616 223.5 26.3707 223.499 25.9627C223.498 25.8871 223.475 25.8134 223.433 25.7503C223.39 25.6872 223.33 25.6373 223.26 25.6066C223.19 25.5758 223.112 25.5655 223.036 25.5768C222.96 25.5882 222.888 25.6207 222.83 25.6706C222.192 26.2426 221.46 26.7044 220.664 27.0364C219.506 27.5232 218.257 27.7692 216.997 27.7588C214.312 27.7588 212.189 27.0245 210.627 25.5561C209.065 24.0876 208.289 21.906 208.3 19.0112V10.0782C208.3 9.45001 208.555 8.84756 209.008 8.40339C209.461 7.95922 210.075 7.7097 210.716 7.7097H212.624C212.731 7.7097 212.833 7.75127 212.909 7.8253C212.984 7.89932 213.027 7.99975 213.027 8.10444V18.3678C213.027 20.1494 213.429 21.4771 214.235 22.3508C215.04 23.2271 216.219 23.6692 217.729 23.6692C219.42 23.6692 220.762 23.156 221.755 22.1297C222.749 21.1034 223.246 19.627 223.249 17.7007V10.0782C223.249 9.45001 223.504 8.84756 223.957 8.40339C224.41 7.95922 225.024 7.7097 225.665 7.7097H227.573C227.628 7.70646 227.683 7.71427 227.735 7.73266C227.786 7.75104 227.834 7.77962 227.874 7.8166C227.914 7.85358 227.945 7.89818 227.967 7.94769C227.989 7.99719 228 8.05055 228 8.10444Z" fill="white"/>
</svg>
